<?xml version="1.0" encoding="utf-8"?>
<!-- Generator: Adobe Illustrator 24.0.2, SVG Export Plug-In . SVG Version: 6.00 Build 0)  -->
<svg version="1.1" id="katman_1" xmlns="http://www.w3.org/2000/svg" xmlns:xlink="http://www.w3.org/1999/xlink" x="0px" y="0px"
	 viewBox="0 0 299.5 88" style="enable-background:new 0 0 299.5 88;" xml:space="preserve">
<style type="text/css">
	.st0{fill:#0070E0;}
	.st1{fill:#003087;}
	.st2{fill:#001C64;}
</style>
<desc>Created with Sketch.</desc>
<path class="st0" d="M265.8,26.2l-6,37.5c-0.1,0.5,0.3,1,0.8,1.1c0,0,0.1,0,0.2,0h7.1c0.5,0,1-0.4,1-0.9l6-37.5
	c0.1-0.5-0.3-1-0.8-1.1c0,0-0.1,0-0.2,0h-7.1C266.4,25.3,265.9,25.7,265.8,26.2z M258.3,37.1h-6.7c-0.5,0-1,0.4-1,0.9l-0.2,1.4
	c0,0-5.2-5.7-14.4-1.8c-5.3,2.2-7.8,6.7-8.9,10c0,0-3.4,10.1,4.3,15.6c0,0,7.2,5.3,15.3-0.3l-0.1,0.9c-0.1,0.4,0.2,0.8,0.6,1
	c0.1,0.1,0.3,0.1,0.4,0.1h6.7c0.5,0,1-0.4,1-0.9l4.1-25.7c0-0.3,0-0.6-0.2-0.8C258.8,37.2,258.6,37.1,258.3,37.1L258.3,37.1z
	 M248.4,51.3c-0.3,1.8-1.2,3.4-2.6,4.6c-1.4,1.2-3.2,1.8-5,1.8c-0.7,0-1.4-0.1-2.1-0.3c-2.9-0.9-4.6-3.7-4.1-6.7
	c0.3-1.8,1.2-3.4,2.6-4.6s3.2-1.8,5-1.8c0.7,0,1.4,0.1,2.1,0.3C247.3,45.6,248.9,48.3,248.4,51.3L248.4,51.3L248.4,51.3z M212.6,52
	c3.6,0,7.2-1.3,9.9-3.6c2.8-2.3,4.6-5.6,5.1-9.2c1.2-7.4-4.7-13.9-13-13.9h-13.4c-0.5,0-1,0.4-1,0.9l-6,37.5c-0.1,0.4,0.2,0.8,0.6,1
	c0.1,0.1,0.3,0.1,0.4,0.1h7.1c0.5,0,1-0.4,1-0.9l1.8-11c0.1-0.5,0.5-0.9,1-0.9L212.6,52L212.6,52z M218.5,38.9
	c-0.4,2.8-2.6,4.8-6.7,4.8h-5.2l1.6-10h5.1C217.6,33.7,218.9,36.2,218.5,38.9L218.5,38.9z"/>
<path class="st1" d="M186.3,37.8l-8.1,13.6l-4.1-13.5c-0.1-0.4-0.5-0.7-1-0.7h-7.3c-0.4,0-0.7,0.3-0.8,0.7c0,0.1,0,0.3,0,0.4
	l7.4,22.7l-6.7,10.7c-0.2,0.4-0.1,0.8,0.2,1.1c0,0,0,0,0,0c0.1,0.1,0.3,0.1,0.4,0.1h7.9c0.5,0,0.9-0.2,1.1-0.6l20.6-33.8
	c0.1-0.2,0.2-0.5,0-0.8s-0.4-0.4-0.7-0.4h-7.9C186.9,37.1,186.5,37.4,186.3,37.8z M161.6,37.1h-6.7c-0.5,0-1,0.4-1,0.9l-0.2,1.4
	c0,0-5.2-5.7-14.4-1.8c-5.3,2.2-7.8,6.7-8.9,10c0,0-3.4,10.1,4.3,15.6c0,0,7.2,5.3,15.3-0.3l-0.1,0.9c-0.1,0.4,0.2,0.8,0.6,1
	c0.1,0.1,0.3,0.1,0.4,0.1h6.7c0.5,0,1-0.4,1-0.9l4.1-25.7c0.1-0.4-0.2-0.8-0.6-1C161.9,37.2,161.8,37.1,161.6,37.1L161.6,37.1z
	 M151.7,51.3c-0.3,1.8-1.2,3.4-2.6,4.6c-1.4,1.2-3.2,1.8-5,1.8c-0.7,0-1.4-0.1-2.1-0.3c-2.9-0.9-4.6-3.7-4.1-6.7
	c0.3-1.8,1.2-3.4,2.6-4.6c1.4-1.2,3.2-1.8,5-1.8c0.7,0,1.4,0.1,2.1,0.3C150.6,45.6,152.2,48.3,151.7,51.3L151.7,51.3L151.7,51.3z
	 M115.9,52c3.6,0,7.1-1.3,9.9-3.7c2.8-2.3,4.6-5.6,5.1-9.2c1.2-7.4-4.7-13.9-13-13.9h-13.4c-0.5,0-1,0.4-1,0.9l-6,37.5
	c-0.1,0.4,0.2,0.8,0.6,1c0.1,0.1,0.3,0.1,0.4,0.1h7.1c0.5,0,1-0.4,1-0.9l1.8-11c0.1-0.5,0.5-0.9,1-0.9L115.9,52L115.9,52z
	 M121.8,38.9c-0.4,2.8-2.6,4.8-6.7,4.8h-5.2l1.6-10h5.1C120.9,33.7,122.3,36.2,121.8,38.9L121.8,38.9z"/>
<path class="st2" d="M70.2,27.2c0.2-8.3-6.7-14.7-16.1-14.7H34.7c-0.9,0-1.7,0.7-1.9,1.6L25,62.9c-0.1,0.8,0.4,1.6,1.3,1.8
	c0.1,0,0.2,0,0.2,0h11.5l-1.8,11.3c-0.1,0.8,0.4,1.6,1.3,1.8c0.1,0,0.2,0,0.2,0h9.4c0.5,0,0.9-0.2,1.2-0.5c0.3-0.3,0.4-0.7,0.5-1.1
	l2.8-16.2c0.1-0.4,0.3-1,0.6-1.3s0.6-0.5,1.1-0.5h5.7c9.2,0,17-6.5,18.4-15.7C78.6,36,75.8,30.1,70.2,27.2L70.2,27.2z"/>
<path class="st0" d="M40.6,46.7l-2.9,18.2l-1.8,11.4c-0.1,0.8,0.4,1.6,1.3,1.8c0.1,0,0.2,0,0.2,0h9.9c0.9,0,1.7-0.7,1.9-1.6
	l2.6-16.6c0.2-0.9,0.9-1.6,1.9-1.6h5.8c9.2,0,17-6.7,18.5-15.8c1-6.5-2.2-12.3-7.8-15.3c0,0.7-0.1,1.4-0.2,2.1
	c-1.4,9.1-9.2,15.8-18.4,15.8h-9.2C41.5,45.1,40.7,45.8,40.6,46.7"/>
<path class="st1" d="M37.7,64.9H26.1c-0.9,0-1.5-0.7-1.5-1.5c0-0.1,0-0.2,0-0.2l7.8-49.4c0.2-0.9,0.9-1.6,1.9-1.6h19.9
	c9.4,0,16.2,6.8,16.1,15.1c-2.3-1.2-5.1-1.9-8.1-1.9H45.6c-0.9,0-1.7,0.7-1.9,1.6l-3.1,19.8L37.7,64.9L37.7,64.9z"/>
</svg>
